# xmcd
#
# Track frame offsets:
#       150
#       17675
#       35712
#
# Disc length: 852 seconds
#
# Revision: 1
# Processed by: cddbd v1.4PL0 Copyright (c) Steve Scherf et al.
# Submitted via: MusiCat 1.1
#
DISCID=1d035203
DTITLE=Sally Oldfield - I Say Something (Single CD)
DYEAR=1900
DGENRE=
TTITLE0=I Say Something (Single Version)
TTITLE1=In The Heat Of The Night
TTITLE2=I Say Something (Say Something-Mix)
EXTD=\n\n
EXTT0=
EXTT1=
EXTT2=
PLAYORDER=
